<svg xmlns="http://www.w3.org/2000/svg" width="59.001" height="59.001" viewBox="0 0 59.001 59.001">
  <path id="RRSS_TWITTER" data-name="RRSS TWITTER" d="M-1391.736-4520.25a29.3,29.3,0,0,1-11.482-2.318,29.4,29.4,0,0,1-9.377-6.322,29.409,29.409,0,0,1-6.322-9.377,29.323,29.323,0,0,1-2.318-11.483,29.318,29.318,0,0,1,2.318-11.482,29.4,29.4,0,0,1,6.322-9.376,29.4,29.4,0,0,1,9.377-6.323,29.3,29.3,0,0,1,11.482-2.318,29.308,29.308,0,0,1,11.483,2.318,29.4,29.4,0,0,1,9.377,6.323,29.4,29.4,0,0,1,6.322,9.376,29.314,29.314,0,0,1,2.318,11.482,29.321,29.321,0,0,1-2.318,11.483,29.4,29.4,0,0,1-6.322,9.377,29.4,29.4,0,0,1-9.377,6.322A29.307,29.307,0,0,1-1391.736-4520.25Zm-16.318-18.876h0a19.525,19.525,0,0,0,10.586,3.094c12.279,0,19.616-9.973,19.616-19.615,0-.294,0-.6-.022-.9a14.767,14.767,0,0,0,3.458-3.565,13.793,13.793,0,0,1-3.971,1.066,6.86,6.86,0,0,0,3.032-3.8,13.648,13.648,0,0,1-4.376,1.665,6.923,6.923,0,0,0-5.037-2.176,6.9,6.9,0,0,0-6.894,6.894,7.863,7.863,0,0,0,.17,1.579,19.644,19.644,0,0,1-14.215-7.214,6.816,6.816,0,0,0-.939,3.479,6.884,6.884,0,0,0,3.073,5.741,6.942,6.942,0,0,1-3.116-.875v.086a6.926,6.926,0,0,0,5.528,6.767,7.343,7.343,0,0,1-1.815.234,8.639,8.639,0,0,1-1.3-.107,6.909,6.909,0,0,0,6.446,4.781,13.74,13.74,0,0,1-8.558,2.947A13.978,13.978,0,0,1-1408.054-4539.126Z" transform="translate(1421.236 4579.25)" fill="#fff"/>
</svg>
