<svg xmlns="http://www.w3.org/2000/svg" width="59" height="59" viewBox="0 0 59 59">
  <path id="RRSS_INSTAGRAM" data-name="RRSS INSTAGRAM" d="M29.5,59A29.508,29.508,0,0,1,18.017,2.318,29.508,29.508,0,0,1,40.983,56.682,29.316,29.316,0,0,1,29.5,59Zm-.069-48.74c-3.414,0-6.443.052-7.907.135-3.581.169-6.058,1.122-8.032,3.088s-2.915,4.429-3.1,8.031c-.181,3.178-.181,12.638,0,15.816.169,3.591,1.124,6.068,3.1,8.032s4.446,2.916,8.032,3.1c1.464.083,4.494.135,7.907.135s6.443-.052,7.907-.135c3.59-.169,6.067-1.124,8.032-3.1s2.917-4.439,3.1-8.032c.18-3.177.18-12.631,0-15.807-.171-3.591-1.126-6.068-3.1-8.032s-4.438-2.916-8.032-3.1C35.874,10.312,32.844,10.26,29.431,10.26Zm3.387,34.9h0c-.718,0-1.409-.007-2.019-.013-.5-.005-.967-.01-1.363-.01s-.849,0-1.336.009c-.6.006-1.273.012-1.974.012-2.568,0-6.191-.082-7.989-.792a6.475,6.475,0,0,1-3.643-3.643c-.858-2.164-.811-6.839-.779-9.932.005-.5.01-.969.01-1.367s0-.851-.009-1.339c-.03-3.1-.075-7.8.779-9.959a6.474,6.474,0,0,1,3.643-3.644c1.793-.71,5.376-.792,7.915-.792.719,0,1.41.007,2.021.013.5.005.968.01,1.364.01s.85,0,1.337-.009c.6-.006,1.274-.012,1.976-.012,2.568,0,6.189.082,7.986.791a6.479,6.479,0,0,1,3.644,3.644c.858,2.164.811,6.839.779,9.932-.005.5-.01.969-.01,1.367s0,.869.01,1.368c.031,3.1.079,7.776-.779,9.932a6.471,6.471,0,0,1-3.644,3.643C38.942,45.079,35.358,45.161,32.818,45.161ZM29.435,19.6a9.828,9.828,0,1,0,9.828,9.827A9.839,9.839,0,0,0,29.435,19.6ZM39.665,16.9A2.292,2.292,0,1,0,41.957,19.2,2.295,2.295,0,0,0,39.665,16.9ZM29.435,35.816a6.39,6.39,0,1,1,6.389-6.39A6.4,6.4,0,0,1,29.435,35.816Z" fill="#fff"/>
</svg>
