<svg xmlns="http://www.w3.org/2000/svg" width="65.896" height="75.22" viewBox="0 0 65.896 75.22">
  <path id="Trazado_5" data-name="Trazado 5" d="M0,18.949c.086-1.082-.017-2.163.12-3.245a7.077,7.077,0,0,1,6.73-6.181c.858-.034,1.717-.017,2.575-.034,1.3,0,2.627,0,3.932.034.549.017.755-.137.738-.721-.034-1.3-.017-2.627-.017-3.932,0-.858,0-1.717.017-2.558a1.972,1.972,0,0,1,2.232-2.2C18.011.08,19.693.115,21.376.1a2.458,2.458,0,0,1,2.112,1.082l.1,3.709c-.017,1.356-.017,2.73-.052,4.086-.017.464.206.567.618.567,1.391-.017,2.781-.017,4.172-.034H37.6c1.391,0,2.781,0,4.172.034.412,0,.635-.1.618-.567-.034-1.356-.034-2.73-.052-4.086.017-.893.086-1.768.034-2.644A1.842,1.842,0,0,1,44.314.149c1.82-.052,3.657-.034,5.477,0a1.9,1.9,0,0,1,1.906,1.3A28.854,28.854,0,0,1,51.835,4.9c0,1.339,0,2.678-.034,4.018-.017.5.172.635.652.635,1.339-.034,2.678-.017,4.018-.034.858.017,1.717,0,2.575.034a7.013,7.013,0,0,1,6.73,6.25c.12,1.065.052,2.112.12,3.159V65.839c-.086,1.082-.034,2.163-.12,3.245a7.241,7.241,0,0,1-6.851,6.233Q32.94,75.24,6.954,75.3A14.844,14.844,0,0,1,5,75.076a8.061,8.061,0,0,1-4.6-4.464C.309,70.166.223,69.72.12,69.29.086,68.191.034,67.11,0,66.011V23.6C0,22.023,0,20.495,0,18.949Zm58.7,9.083c0-.79.017-1.6.017-2.387,0-2.215,0-2.215-2.266-2.009a44.582,44.582,0,0,0-4.79,0,42.064,42.064,0,0,0-4.653,0c-1.648-.069-3.314-.086-4.962,0a39.019,39.019,0,0,0-4.481,0,46.044,46.044,0,0,0-4.619,0,42.064,42.064,0,0,0-4.653,0,44.582,44.582,0,0,0-4.79,0,42.064,42.064,0,0,0-4.653,0c-1.6-.069-3.194-.086-4.79,0a41.755,41.755,0,0,0-4.636,0c-.567-.017-1.133,0-1.7-.052-.549-.052-.67.206-.652.7.052,1.356.086,2.73.12,4.086v37.6c-.086,2.3-.052,2.335,2.249,2.215H56.487c2.284.12,2.318.086,2.266-2.215,0-.052-.017-.12-.017-.172V28.376A1.112,1.112,0,0,1,58.7,28.032ZM29.36,31.054c.034.652,0,1.3-.017,1.957v4.636c0,.807-.034,1.631.034,2.438.086.858-.206,1.219-1.065,1.065a.644.644,0,0,1-.532.034,25.272,25.272,0,0,1-3.606,0h-.687a46.044,46.044,0,0,1-4.619,0,2.3,2.3,0,0,0-2.335,1.288,34.55,34.55,0,0,0,0,4.619,2.249,2.249,0,0,0,2.318,1.236H28.3c.858-.189,1.168.137,1.082,1.013a22.139,22.139,0,0,0-.034,2.387v4.807c0,.79.017,1.58.017,2.369a2.326,2.326,0,0,0,1.219,2.249c.79.034,1.562.052,2.352.086l2.472-.1a2.832,2.832,0,0,0,1.1-2.627c-.017-.652,0-1.3.017-1.974V51.726a22.138,22.138,0,0,0-.034-2.387c-.086-.893.223-1.2,1.082-1.013H47.01a2.224,2.224,0,0,0,2.318-1.253,31.192,31.192,0,0,0,0-4.567,2.237,2.237,0,0,0-2.318-1.288,42.064,42.064,0,0,1-4.653,0q-2.4.1-4.79,0c-.773.189-1.185,0-1.082-.91.069-.7.034-1.408.034-2.112V33.046c0-.773-.017-1.528-.017-2.3a2.672,2.672,0,0,0-1.065-2.3,13.586,13.586,0,0,0-2.507-.189,12.4,12.4,0,0,0-2.524.172A2.958,2.958,0,0,0,29.36,31.054Z" transform="translate(0 -0.097)" fill="#1b5696"/>
</svg>
