<svg xmlns="http://www.w3.org/2000/svg" width="56.479" height="75.22" viewBox="0 0 56.479 75.22">
  <path id="Trazado_4" data-name="Trazado 4" d="M4.654,1.253A12.631,12.631,0,0,1,10.695,0Q28.483.026,46.254.017c.824,0,1.648.086,2.471.137A20.193,20.193,0,0,1,51.643,1.3a11.287,11.287,0,0,1,3.5,3.535,21.014,21.014,0,0,1,.978,2.694,2.989,2.989,0,0,1,.086.378c-.017.017-.034.034-.017.051a.374.374,0,0,0,.069.086c.034.446.051.91.086,1.356a35.05,35.05,0,0,0,.017,4.651,44.562,44.562,0,0,0,0,4.788,44.074,44.074,0,0,0,0,4.994,30.3,30.3,0,0,0,.017,3.947,2.535,2.535,0,0,1-.017.36,40.808,40.808,0,0,0,0,4.805,41.427,41.427,0,0,0,0,4.617,37.681,37.681,0,0,0,0,4.822,41.427,41.427,0,0,0,0,4.617,38.229,38.229,0,0,0,0,4.651,44.562,44.562,0,0,0,0,4.788,35.049,35.049,0,0,0,0,4.651c-.086,1.648-.069,3.312-.017,4.96,0,.051-.017.12-.017.172l-.051,1.03a17.042,17.042,0,0,1-1.2,3.278,10.58,10.58,0,0,1-3.432,3.432,11.132,11.132,0,0,1-5.612,1.253Q28.474,75.194,10.9,75.2c-1.081,0-2.162-.051-3.261-.069l-.257-.1c-.12-.017-.223-.017-.343-.034-.807-.343-1.6-.686-2.4-1.03A9.832,9.832,0,0,1-.083,65.7a35.049,35.049,0,0,0,0-4.651,41.427,41.427,0,0,0,0-4.617A34.652,34.652,0,0,0-.083,52,2.781,2.781,0,0,0-.1,51.623a41.427,41.427,0,0,0,0-4.617,35.049,35.049,0,0,0,0-4.651,44.562,44.562,0,0,0,0-4.788,35.049,35.049,0,0,0,0-4.651A41.427,41.427,0,0,0-.1,28.3a2.781,2.781,0,0,1,.017-.378,38.406,38.406,0,0,0,0-4.445,41.427,41.427,0,0,0,0-4.617,38.229,38.229,0,0,0,0-4.651,44.562,44.562,0,0,0,0-4.788c.086-.635.154-1.27.24-1.9A16.771,16.771,0,0,1,1.17,4.788,11.6,11.6,0,0,1,4.654,1.253Zm.051,26.7c0,.12.017.223.017.343a45.683,45.683,0,0,0-.017,4.6,35.308,35.308,0,0,0,0,4.668c-.069,1.6-.069,3.175,0,4.771a35.308,35.308,0,0,0,0,4.668,45.664,45.664,0,0,0,.017,4.6c0,.12-.017.24-.017.36a35.191,35.191,0,0,0,0,4.462v4.6a29.548,29.548,0,0,0,.086,5.509,4.406,4.406,0,0,0,3.776,3.776,29.364,29.364,0,0,0,5.492.086c1.527.069,3.072.069,4.6,0a34.922,34.922,0,0,0,4.445,0c.12,0,.257-.017.378-.017A46.026,46.026,0,0,0,28.1,70.4a38.23,38.23,0,0,0,4.651,0c1.6.086,3.192.069,4.771,0a35.051,35.051,0,0,0,4.651,0,40.216,40.216,0,0,0,4.771-.017.536.536,0,0,0,.532-.069,4.377,4.377,0,0,0,3.93-3.776.7.7,0,0,0,.069-.686v-.326a38.406,38.406,0,0,0,.017-4.445,35.048,35.048,0,0,0,0-4.651c.069-1.6.069-3.192,0-4.771a35.048,35.048,0,0,0,0-4.651c.069-1.527.069-3.072,0-4.6a37.679,37.679,0,0,0,0-4.822c.069-1.527.069-3.072,0-4.6a43.228,43.228,0,0,0,0-5.166,37.2,37.2,0,0,0,0-3.913,44.073,44.073,0,0,0,0-4.994c.069-1.6.069-3.192,0-4.771A27.74,27.74,0,0,0,51.4,8.8a4.543,4.543,0,0,0-4.634-3.93H9.185A4.552,4.552,0,0,0,4.637,9.508c-.086,1.6-.069,3.175,0,4.771a35.308,35.308,0,0,0,0,4.668v4.6C4.619,24.953,4.619,26.446,4.705,27.957ZM44.28,51.605a12.575,12.575,0,0,0-.824-2.059,9.419,9.419,0,0,0-5.869-4.634,13.919,13.919,0,0,0-4.771-.1,13.833,13.833,0,0,1-4.651.755,14.276,14.276,0,0,1-4.651-.755,13.606,13.606,0,0,0-4.788.086,9.464,9.464,0,0,0-5.869,4.634,12.575,12.575,0,0,0-.824,2.059,26.417,26.417,0,0,0-.343,4.805c.017,1.013.034,2.025.017,3.038a2.336,2.336,0,0,0,.36,1.356c.635.378,1.356.189,2.025.309l1.665-.1a2.006,2.006,0,0,0,.721-1.733c-.017-.961.017-1.922.017-2.9-.017-1.63-.257-3.312.7-4.805a3.112,3.112,0,0,1,1.51-1.562,2.529,2.529,0,0,1,1.51-.5.319.319,0,0,1,.36-.086,2.51,2.51,0,0,1,1.236,0c.12.034.223.069.343.1a1.733,1.733,0,0,1,1.013.189.358.358,0,0,1,.36.1,46.522,46.522,0,0,0,4.617.6,31.646,31.646,0,0,0,4.582-.635c1.648-.5,3.278-.721,4.84.275a2.954,2.954,0,0,1,1.545,1.545c.978,1.493.686,3.175.686,4.805.017.961.034,1.922.017,2.883a1.961,1.961,0,0,0,.7,1.716c.549.034,1.116.069,1.665.12l1.733-.154a1.493,1.493,0,0,0,.669-1.373c-.017-1.064.017-2.128.017-3.209A24.978,24.978,0,0,0,44.28,51.605ZM18.658,37.55a13.376,13.376,0,0,1-2.111-4.891,14.845,14.845,0,0,1,.034-4.359,13.517,13.517,0,0,1,2.128-4.822c.069-.1.154-.223.223-.326A14.994,14.994,0,0,1,23.5,19.7c1.03-.292,2.077-.566,3.106-.858.515-.017,1.013-.017,1.527-.034a11.955,11.955,0,0,1,9.387,4.6l.034.051a13.273,13.273,0,0,1,2.111,4.805,13.135,13.135,0,0,1-.017,4.634A12.9,12.9,0,0,1,37.6,37.533a.13.13,0,0,0-.069.12,14.128,14.128,0,0,1-4.822,3.758c-.789.24-1.579.481-2.385.738l-2.214.206c-.223,0-.446-.017-.669-.017a19.293,19.293,0,0,1-3.93-.944,13.813,13.813,0,0,1-4.805-3.741Q18.735,37.6,18.658,37.55Zm2.935-9.25c.12.463-.446.721-.326,1.184a.515.515,0,0,0-.1.515,3,3,0,0,0,0,1.236.485.485,0,0,0,.1.5,2.114,2.114,0,0,0,.326,1.2,5.347,5.347,0,0,0,1.9,2.849,6.278,6.278,0,0,0,4.634,1.75A6.358,6.358,0,0,0,32.765,35.8a5.587,5.587,0,0,0,1.922-2.866,6.032,6.032,0,0,0,.034-4.668,5.589,5.589,0,0,0-1.956-2.883,6.057,6.057,0,0,0-4.634-1.75A6.01,6.01,0,0,0,23.515,25.4,4.772,4.772,0,0,0,21.592,28.3Z" transform="translate(0.1)" fill="#1f467f"/>
</svg>
