<svg xmlns="http://www.w3.org/2000/svg" width="65.606" height="75.225" viewBox="0 0 65.606 75.225">
  <path id="Trazado_3" data-name="Trazado 3" d="M.086,70.066c-.017-.275-.034-.567-.052-.843Q.009,43.118,0,17.013c0-.464,0-.911.017-1.376A7.1,7.1,0,0,1,6.844,9.481c.825-.034,1.651-.034,2.476-.034,1.307.017,2.631-.017,3.938.052.636.034.825-.155.825-.808-.034-2.253,0-4.523,0-6.776A2.517,2.517,0,0,1,16.8.074c1.255.017,2.494.034,3.749,0A2.8,2.8,0,0,1,23.233,1.4a5,5,0,0,1,.172,1.513c-.017,1.909-.017,3.835,0,5.744,0,.258-.138.567.138.791,1.548,0,3.1.017,4.626.017h9.269c1.393.017,2.786,0,4.179.034.516.017.619-.206.6-.653C42.2,6.661,42.2,4.46,42.184,2.276A2.286,2.286,0,0,1,44.54.109C46.1.04,47.687.074,49.252.109a2.221,2.221,0,0,1,2.132,1.462,6.671,6.671,0,0,1,.155,1c.017,1.788,0,3.577.017,5.365a3.151,3.151,0,0,0,.1,1.5,41.546,41.546,0,0,0,4.626.034c.533.017,1.083.034,1.617.034a8.117,8.117,0,0,1,3.955.825,7.386,7.386,0,0,1,3.388,3.8c.086.292.189.585.275.877.017.172.034.344.052.5,0,.052.017.12.017.172,0,5.864.017,11.728.017,17.592v35.8a6.981,6.981,0,0,1-7.034,6.208q-25.821.026-51.625.017a12.652,12.652,0,0,1-2.132-.241A8.054,8.054,0,0,1,.138,70.427C.241,70.272.224,70.135.086,70.066Zm56.268-1.874c.447.017.894.034,1.324.017.55-.017.894-.241.911-.843a1.552,1.552,0,0,0,.1-.843q0-21.023.017-42.064c0-.791-.241-.929-.963-.929q-24.918.026-49.837,0c-.722,0-.963.138-.963.929.034,14,.017,27.979.034,41.978a1.716,1.716,0,0,0,.1.929c.017.6.378.825.911.843.447.017.894-.017,1.324-.017H51.728C53.276,68.174,54.824,68.174,56.354,68.191ZM16.9,44.786c.619,0,1.255.017,1.874.034H46.93c.619-.017,1.255-.034,1.874-.034a2.8,2.8,0,0,0,2.717-1.565c.017-.086.052-.189.069-.275V32.491c-.034-.1-.069-.224-.1-.327A2.588,2.588,0,0,0,48.8,30.616c-.619.017-1.255-.017-1.874-.034H18.779c-.567.017-1.135.052-1.685.017a2.781,2.781,0,0,0-2.923,1.582c-.017.1-.052.206-.069.292,0,3.216,0,6.432-.017,9.665a4.5,4.5,0,0,0,.241,1.341A2.79,2.79,0,0,0,16.9,44.786Z" transform="translate(0 -0.069)" fill="#1f467f"/>
</svg>
