<svg xmlns="http://www.w3.org/2000/svg" width="59" height="59" viewBox="0 0 59 59">
  <path id="WHATSAPP_" data-name="WHATSAPP " d="M29.5,59A29.508,29.508,0,0,1,18.017,2.318,29.508,29.508,0,0,1,40.983,56.682,29.316,29.316,0,0,1,29.5,59Zm-.09-45.9A16.189,16.189,0,0,0,15.392,37.359l-2.3,8.379,8.575-2.251A16.167,16.167,0,0,0,29.4,45.455h.007A16.073,16.073,0,0,0,40.849,17.84,16.049,16.049,0,0,0,29.41,13.1Zm0,29.633a13.421,13.421,0,0,1-6.849-1.873l-.488-.291L16.988,41.9l1.355-4.962-.32-.51a13.47,13.47,0,1,1,24.984-7.148,13.266,13.266,0,0,1-4.02,9.507A13.579,13.579,0,0,1,29.41,42.729ZM23.676,21.811a1.5,1.5,0,0,0-1.078.5l-.08.086a4.464,4.464,0,0,0-1.334,3.287,7.647,7.647,0,0,0,1.631,4.161l.016.021c.014.018.038.053.073.1a17.538,17.538,0,0,0,6.833,6,10.01,10.01,0,0,0,3.908,1.091,6.381,6.381,0,0,0,.945-.077,4.137,4.137,0,0,0,2.725-1.924,3.384,3.384,0,0,0,.233-1.923c-.079-.153-.279-.248-.582-.392l-.183-.088c-.415-.212-2.392-1.182-2.761-1.312a1.332,1.332,0,0,0-.434-.106.559.559,0,0,0-.477.31c-.295.446-1.182,1.473-1.282,1.589a.557.557,0,0,1-.436.232,1,1,0,0,1-.438-.131c-2.369-1.184-3.922-2.1-5.5-4.809-.23-.4-.074-.56.237-.885a4.952,4.952,0,0,0,.951-1.323.752.752,0,0,0-.037-.706c-.072-.145-.49-1.164-.859-2.063l0-.009c-.148-.361-.285-.7-.383-.93-.288-.691-.581-.691-.816-.691-.033,0-.065,0-.095,0C24.215,21.811,23.941,21.811,23.676,21.811Z" fill="#fff"/>
</svg>
