<svg id="Capa_1" data-name="Capa 1" xmlns="http://www.w3.org/2000/svg" viewBox="0 0 500.16 109.01"><defs><style>.cls-1{fill:#be1622;}.cls-2{fill:none;stroke:#000;stroke-miterlimit:10;stroke-width:8px;}.cls-3{fill:#fff;}</style></defs><title>Mesa de trabajo 40</title><path d="M0,18.56H3.61v71.1H47.19V93H0Z"/><path d="M117.94,71.17H73.41L63.42,93H59.48L93.92,18.56h3.51L131.86,93h-3.93Zm-1.38-3.09L95.72,22.7,74.79,68.08ZM105.18.49h5.74l-16.26,12H90.41Z"/><path d="M204.38,89.66V93H145.29V90.4l53-68.55h-52.5V18.56h57.39v2.55l-53,68.55Z"/><path d="M274.85,71.17H230.31L220.32,93h-3.93l34.44-74.39h3.5L288.77,93h-3.93Zm-1.39-3.09L252.63,22.7,231.7,68.08Z"/><path d="M357.47,93,339.09,67.34A47.28,47.28,0,0,1,331,68H308.8V93h-3.62V18.56H331q13.92,0,21.73,6.53t7.81,18.12q0,8.94-4.62,14.94T342.7,66.49l19,26.46ZM331.22,64.68q12.43,0,19.13-5.58t6.7-15.89q0-10.2-6.7-15.78t-19.13-5.58H308.8V64.68Z"/><path d="M419.21,88.49A35.77,35.77,0,0,1,405.45,75a37.61,37.61,0,0,1-5-19.23,37.63,37.63,0,0,1,5-19.24A35.77,35.77,0,0,1,419.21,23a41.89,41.89,0,0,1,39.28,0,35.63,35.63,0,0,1,13.81,13.5,37.63,37.63,0,0,1,5,19.24,37.62,37.62,0,0,1-5,19.23,35.63,35.63,0,0,1-13.81,13.5,41.89,41.89,0,0,1-39.28,0Zm37.36-2.87a32.65,32.65,0,0,0,12.54-12.33,34.22,34.22,0,0,0,4.57-17.53,34.23,34.23,0,0,0-4.57-17.54,32.72,32.72,0,0,0-12.54-12.33,37.43,37.43,0,0,0-35.44,0,32.93,32.93,0,0,0-12.49,12.33,34.23,34.23,0,0,0-4.57,17.54,34.22,34.22,0,0,0,4.57,17.53,32.86,32.86,0,0,0,12.49,12.33,37.43,37.43,0,0,0,35.44,0Z"/><circle class="cls-1" cx="475.56" cy="19.22" r="6.64"/><polyline class="cls-2" points="381.59 13.13 381.59 4 496.16 4 496.16 11.47"/><polyline class="cls-2" points="496.16 95.88 496.16 105.01 381.59 105.01 381.59 97.54"/><circle cx="438.88" cy="55.94" r="20.3"/><circle class="cls-3" cx="451.39" cy="42.47" r="14.39"/></svg>