<svg viewBox="0 0 56 56" fill="none" xmlns="http://www.w3.org/2000/svg">
<path d="M1.75 34.125L4.375 40.25L1.75 43.75L4.375 47.25L1.75 53.375L20.125 43.75L1.75 34.125Z" fill="#E34E4B"/>
<path d="M4.375 47.25L20.125 43.75L4.375 40.25L1.75 43.75L4.375 47.25Z" fill="#DE4542"/>
<path d="M41.125 28.875C48.3737 28.875 54.25 22.9987 54.25 15.75C54.25 8.50126 48.3737 2.625 41.125 2.625C33.8763 2.625 28 8.50126 28 15.75C28 22.9987 33.8763 28.875 41.125 28.875Z" fill="#50B6CF"/>
<path d="M51.3078 7.47449C52.1276 9.18775 52.6001 11.0989 52.6001 13.125C52.6001 20.3737 46.7239 26.25 39.4751 26.25C35.3649 26.25 31.6991 24.3581 29.2925 21.4005C31.4057 25.8169 35.9024 28.875 41.1251 28.875C48.3739 28.875 54.2501 22.9987 54.2501 15.75C54.2501 12.6115 53.1454 9.73285 51.3078 7.47449Z" fill="#3CADC9"/>
<path d="M41.125 24.5C45.9575 24.5 49.875 20.5825 49.875 15.75C49.875 10.9175 45.9575 7 41.125 7C36.2925 7 32.375 10.9175 32.375 15.75C32.375 20.5825 36.2925 24.5 41.125 24.5Z" fill="#DED8D0"/>
<path d="M41.125 20.125C43.5412 20.125 45.5 18.1662 45.5 15.75C45.5 13.3338 43.5412 11.375 41.125 11.375C38.7088 11.375 36.75 13.3338 36.75 15.75C36.75 18.1662 38.7088 20.125 41.125 20.125Z" fill="#F5A947"/>
<path d="M46.8125 44.625H21.875V42.875H46.8125C49.4657 42.875 51.625 40.7161 51.625 38.0625C51.625 35.4089 49.4657 33.25 46.8125 33.25H17.9375C12.8712 33.25 8.75 29.1284 8.75 24.0625C8.75 18.9966 12.8712 14.875 17.9375 14.875H41.125V16.625H17.9375C13.8368 16.625 10.5 19.9614 10.5 24.0625C10.5 28.1636 13.8368 31.5 17.9375 31.5H46.8125C50.4313 31.5 53.375 34.4437 53.375 38.0625C53.375 41.6813 50.4313 44.625 46.8125 44.625Z" fill="#223B5A"/>
<path d="M21.6186 18.9937L20.3813 17.7564L22.3877 15.75L20.3813 13.7437L21.6186 12.5063L24.8623 15.75L21.6186 18.9937Z" fill="#223B5A"/>
<path d="M39.1187 18.9937L37.8813 17.7564L39.8877 15.75L37.8813 13.7437L39.1187 12.5063L42.3623 15.75L39.1187 18.9937Z" fill="#223B5A"/>
<path d="M30.0063 35.6187L26.7627 32.375L30.0063 29.1313L31.2436 30.3687L29.2373 32.375L31.2436 34.3813L30.0063 35.6187Z" fill="#223B5A"/>
<path d="M36.4937 46.9937L35.2563 45.7563L37.2627 43.75L35.2563 41.7437L36.4937 40.5063L39.7373 43.75L36.4937 46.9937Z" fill="#223B5A"/>
<path d="M1.75 43.75H20.125L4.375 47.25L1.75 43.75Z" fill="#D43A37"/>
</svg>
