<svg viewBox="0 0 56 56" fill="none" xmlns="http://www.w3.org/2000/svg">
<path d="M8.79362 32.1957L0 23.4018L7.39584 16.006L16.6787 13.3855L22.1412 18.8482L8.79362 32.1957Z" fill="#C3DAFD"/>
<path d="M32.5884 55.9907L23.7944 47.1966L37.1416 33.8496L42.6133 39.3207L39.9837 48.5954L32.5884 55.9907Z" fill="#A1B8D8"/>
<path d="M0.0578613 53.6062L11.6187 42.0454L13.9347 44.3615L2.37392 55.9223L0.0578613 53.6062Z" fill="#ECC443"/>
<path d="M1.22974 54.7727L12.7905 43.2119L13.9372 44.3585L2.37636 55.9193L1.22974 54.7727Z" fill="#E39069"/>
<path d="M10.2449 52.8105L16.3167 46.7387L18.6329 49.0548L12.561 55.1267L10.2449 52.8105Z" fill="#E39069"/>
<path d="M0.85498 43.418L6.92652 37.3464L9.24258 39.6625L3.17104 45.734L0.85498 43.418Z" fill="#ECC443"/>
<path d="M27.3443 45.2037L10.8045 28.6635L6.48598 29.888L3.70605 36.4404L19.4327 52.1674L26.1199 49.5219L27.3443 45.2037Z" fill="#2B4CA1"/>
<path d="M18.6394 37.379C17.6899 38.3285 11.6624 44.3562 11.6418 44.3767C12.3585 45.0932 19.0207 51.7555 19.4327 52.1674L26.1199 49.5219L26.9042 45.6437L18.6394 37.379Z" fill="#213B82"/>
<path d="M52.2602 19.1102C56.6782 9.11783 55.9039 1.04159 56.0001 0.0157303C55.396 0.13595 37.4372 -1.57283 22.7925 13.5784L6.48438 29.8864L26.1185 49.5201L42.4256 33.2131C46.5287 29.2582 49.9294 24.3821 52.2602 19.1102Z" fill="#E4F3FF"/>
<path d="M52.26 19.1102C56.678 9.11785 55.9038 1.0416 55.9999 0.0157471C55.9992 0.0158565 55.9975 0.0158565 55.9968 0.0160752L16.3054 39.7074L26.1185 49.5201L42.4255 33.2131C46.5285 29.2583 49.9292 24.3821 52.26 19.1102Z" fill="#C3DAFD"/>
<path d="M29.6346 26.3763C24.9828 21.7245 28.2169 13.6188 34.9196 13.6145C41.5722 13.6096 44.8882 21.698 40.2045 26.3817C37.292 29.294 32.5505 29.2918 29.6346 26.3763Z" fill="#84D9F3"/>
<path d="M40.2131 15.8053L29.6382 26.3801C32.5543 29.2917 37.2931 29.2928 40.2044 26.3819C43.3561 23.2302 42.8853 18.5369 40.2131 15.8053Z" fill="#77B0FB"/>
</svg>
