<svg viewBox="0 0 60 60" fill="none" xmlns="http://www.w3.org/2000/svg">
<path d="M58.125 17.3438H51.5625V10.7813C51.5624 10.5959 51.5074 10.4147 51.4044 10.2606C51.3014 10.1064 51.155 9.98629 50.9837 9.91535C50.8124 9.84441 50.624 9.82584 50.4421 9.862C50.2603 9.89815 50.0933 9.98741 49.9622 10.1185L44.3372 15.7435C44.1613 15.9193 44.0625 16.1577 44.0625 16.4063V23.5182L41.894 25.6875C42.3582 26.1056 42.8004 26.5474 43.2187 27.0113L45.3872 24.8438H52.5C52.7486 24.8437 52.987 24.7449 53.1628 24.5691L58.7878 18.9441C58.9189 18.813 59.0081 18.646 59.0443 18.4641C59.0804 18.2823 59.0619 18.0938 58.9909 17.9226C58.92 17.7513 58.7999 17.6049 58.6457 17.5019C58.4916 17.3988 58.3104 17.3438 58.125 17.3438Z" fill="#C4A2FC"/>
<path d="M35.2499 34.9838C36.2485 36.3173 36.7048 37.9796 36.5271 39.636C36.3493 41.2925 35.5507 42.8201 34.2919 43.9114C33.0331 45.0027 31.4077 45.5766 29.7428 45.5176C28.0778 45.4587 26.4971 44.7712 25.3186 43.5936C24.1402 42.416 23.4516 40.8357 23.3915 39.1709C23.3314 37.506 23.9041 35.8801 24.9945 34.6206C26.0849 33.361 27.612 32.5613 29.2683 32.3824C30.9246 32.2035 32.5873 32.6586 33.9215 33.6563L36.5924 30.9844C34.5494 29.2825 31.9288 28.4338 29.276 28.6148C26.6231 28.7958 24.1421 29.9927 22.3492 31.9563C20.5563 33.92 19.5895 36.4993 19.6499 39.1577C19.7103 41.816 20.7932 44.3488 22.6734 46.229C24.5537 48.1092 27.0864 49.1922 29.7448 49.2526C32.4031 49.3129 34.9824 48.3461 36.9461 46.5532C38.9097 44.7603 40.1066 42.2793 40.2876 39.6265C40.4687 36.9736 39.6199 34.3531 37.9181 32.31L35.2499 34.9838Z" fill="#C4A2FC"/>
<path d="M32.58 34.9996C31.6082 34.3564 30.4321 34.097 29.2799 34.2718C28.1277 34.4466 27.0815 35.043 26.3442 35.9455C25.6068 36.848 25.2309 37.9921 25.2894 39.156C25.3478 40.3199 25.8365 41.4207 26.6605 42.2447C27.4846 43.0687 28.5853 43.5574 29.7492 43.6158C30.9131 43.6743 32.0572 43.2984 32.9597 42.5611C33.8622 41.8237 34.4586 40.7775 34.6334 39.6253C34.8082 38.4731 34.5488 37.297 33.9056 36.3253L30.6618 39.569C30.485 39.7398 30.2482 39.8343 30.0024 39.8321C29.7566 39.83 29.5214 39.7314 29.3476 39.5576C29.1738 39.3838 29.0752 39.1486 29.0731 38.9028C29.0709 38.657 29.1654 38.4202 29.3362 38.2434L32.58 34.9996Z" fill="#C4A2FC"/>
<path d="M42.1875 38.9062C42.1958 41.6956 41.2499 44.404 39.5067 46.5816C37.7635 48.7593 35.328 50.2753 32.6045 50.8779C29.881 51.4806 27.0332 51.1336 24.5341 49.8946C22.0349 48.6557 20.0346 46.5993 18.8653 44.0668C17.696 41.5343 17.4281 38.678 18.1058 35.9722C18.7836 33.2664 20.3665 30.8738 22.5915 29.1916C24.8166 27.5094 27.5501 26.6387 30.3382 26.7242C33.1263 26.8097 35.8013 27.8462 37.9191 29.6616L41.8941 25.6875C38.4288 22.5697 33.8829 20.9283 29.2251 21.1131C24.5673 21.2978 20.1658 23.2941 16.9583 26.6766C13.7508 30.0591 11.9909 34.5604 12.0536 39.2214C12.1163 43.8825 13.9966 48.3348 17.294 51.6298C20.5913 54.9247 25.0449 56.8019 29.706 56.8613C34.3671 56.9207 38.8671 55.1576 42.2474 51.9478C45.6276 48.7379 47.6207 44.3349 47.8022 39.677C47.9837 35.019 46.3391 30.4744 43.2188 27.0112L39.2438 30.9872C41.1427 33.1886 42.1874 35.999 42.1875 38.9062Z" fill="#C4A2FC"/>
<path d="M30.375 3.46875C25.6631 6.98708 19.943 8.89376 14.0625 8.90625H5.625C4.38225 8.90774 3.19084 9.40208 2.31208 10.2808C1.43333 11.1596 0.938989 12.351 0.9375 13.5938V21.0938C0.938989 22.3365 1.43333 23.5279 2.31208 24.4067C3.19084 25.2854 4.38225 25.7798 5.625 25.7812H5.85469L9.0225 36.8672C9.19234 37.4538 9.54769 37.9695 10.0353 38.3371C10.5229 38.7047 11.1165 38.9044 11.7272 38.9062H12.2081C12.7887 38.9064 13.3615 38.7718 13.8812 38.5129C14.4009 38.2541 14.8534 37.878 15.2031 37.4145C15.5527 36.951 15.7899 36.4126 15.8961 35.8417C16.0022 35.2709 15.9744 34.6832 15.8147 34.125L13.4306 25.7812H14.0625C19.943 25.7937 25.6631 27.7004 30.375 31.2188C30.5143 31.3232 30.6799 31.3868 30.8533 31.4025C31.0267 31.4181 31.201 31.3851 31.3568 31.3073C31.5125 31.2294 31.6435 31.1097 31.735 30.9616C31.8265 30.8135 31.875 30.6429 31.875 30.4688V4.21875C31.875 4.04465 31.8265 3.87398 31.735 3.72588C31.6435 3.57778 31.5125 3.45809 31.3568 3.38022C31.201 3.30236 31.0267 3.2694 30.8533 3.28504C30.6799 3.30067 30.5143 3.36429 30.375 3.46875ZM14.0109 34.6425C14.0904 34.9215 14.1041 35.2151 14.0509 35.5002C13.9977 35.7853 13.879 36.0542 13.7043 36.2858C13.5296 36.5173 13.3035 36.7051 13.0439 36.8345C12.7843 36.9638 12.4982 37.0312 12.2081 37.0312H11.7272C11.5236 37.0312 11.3255 36.9648 11.163 36.8422C11.0004 36.7195 10.8822 36.5473 10.8263 36.3516L7.80562 25.7812H11.4806L14.0109 34.6425ZM15.9375 23.9766C15.3141 23.9363 14.6888 23.9072 14.0625 23.9072H5.625C4.87908 23.9072 4.16371 23.6109 3.63626 23.0834C3.10882 22.556 2.8125 21.8406 2.8125 21.0947V13.5947C2.8125 12.8488 3.10882 12.1334 3.63626 11.6059C4.16371 11.0785 4.87908 10.7822 5.625 10.7822H14.0625C14.6888 10.7822 15.3141 10.7541 15.9375 10.7128V23.9766ZM30 28.6641C26.3251 26.2717 22.1604 24.7339 17.8125 24.1641V24.1547V10.5225C22.1602 9.95196 26.3248 8.41428 30 6.0225V28.6641Z" fill="#151A6A"/>
<path d="M12.1875 14.5312H6.5625C6.31386 14.5312 6.0754 14.63 5.89959 14.8058C5.72377 14.9817 5.625 15.2201 5.625 15.4688C5.625 15.7174 5.72377 15.9558 5.89959 16.1317C6.0754 16.3075 6.31386 16.4062 6.5625 16.4062H12.1875C12.4361 16.4062 12.6746 16.3075 12.8504 16.1317C13.0262 15.9558 13.125 15.7174 13.125 15.4688C13.125 15.2201 13.0262 14.9817 12.8504 14.8058C12.6746 14.63 12.4361 14.5312 12.1875 14.5312Z" fill="#151A6A"/>
<path d="M12.1875 18.2812H6.5625C6.31386 18.2812 6.0754 18.38 5.89959 18.5558C5.72377 18.7317 5.625 18.9701 5.625 19.2188C5.625 19.4674 5.72377 19.7058 5.89959 19.8817C6.0754 20.0575 6.31386 20.1562 6.5625 20.1562H12.1875C12.4361 20.1562 12.6746 20.0575 12.8504 19.8817C13.0262 19.7058 13.125 19.4674 13.125 19.2188C13.125 18.9701 13.0262 18.7317 12.8504 18.5558C12.6746 18.38 12.4361 18.2812 12.1875 18.2812Z" fill="#151A6A"/>
<path d="M35.625 13.5938C35.3764 13.5938 35.1379 13.6925 34.9621 13.8683C34.7863 14.0442 34.6875 14.2826 34.6875 14.5312V20.1562C34.6875 20.4049 34.7863 20.6433 34.9621 20.8192C35.1379 20.995 35.3764 21.0938 35.625 21.0938C35.8736 21.0938 36.1121 20.995 36.2879 20.8192C36.4637 20.6433 36.5625 20.4049 36.5625 20.1562V14.5312C36.5625 14.2826 36.4637 14.0442 36.2879 13.8683C36.1121 13.6925 35.8736 13.5938 35.625 13.5938Z" fill="#151A6A"/>
<path d="M40.3125 11.7188C40.0639 11.7188 39.8254 11.8175 39.6496 11.9933C39.4738 12.1692 39.375 12.4076 39.375 12.6562V22.0312C39.375 22.2799 39.4738 22.5183 39.6496 22.6942C39.8254 22.87 40.0639 22.9688 40.3125 22.9688C40.5611 22.9688 40.7996 22.87 40.9754 22.6942C41.1512 22.5183 41.25 22.2799 41.25 22.0312V12.6562C41.25 12.4076 41.1512 12.1692 40.9754 11.9933C40.7996 11.8175 40.5611 11.7188 40.3125 11.7188Z" fill="#151A6A"/>
<path d="M45 9.84375C44.7514 9.84375 44.5129 9.94252 44.3371 10.1183C44.1613 10.2942 44.0625 10.5326 44.0625 10.7812V23.9062C44.0625 24.1549 44.1613 24.3933 44.3371 24.5692C44.5129 24.745 44.7514 24.8438 45 24.8438C45.2486 24.8438 45.4871 24.745 45.6629 24.5692C45.8387 24.3933 45.9375 24.1549 45.9375 23.9062V10.7812C45.9375 10.5326 45.8387 10.2942 45.6629 10.1183C45.4871 9.94252 45.2486 9.84375 45 9.84375Z" fill="#151A6A"/>
</svg>
