<svg xmlns="http://www.w3.org/2000/svg" xmlns:xlink="http://www.w3.org/1999/xlink" viewBox="0 0 606 216.86"><defs><style>.cls-1{fill:#fff;}.cls-2{fill:url(#Degradado_sin_nombre_72);}</style><linearGradient id="Degradado_sin_nombre_72" x1="423.19" y1="146.07" x2="423.19" y2="76.51" gradientUnits="userSpaceOnUse"><stop offset="0" stop-color="#ed207c"/><stop offset="1" stop-color="#ef4a65"/></linearGradient></defs><title>Recurso 11</title><g id="Capa_2" data-name="Capa 2"><g id="Capa_1-2" data-name="Capa 1"><rect width="606" height="216.86"/><path class="cls-1" d="M277.75,144.23H252.67c0-4.14,0-7.91,0-11.67-.09-8.32,0-16.65-.5-25-.1-1.78-2-4.74-3.39-4.9-3-.36-3.66,2.61-3.67,5.09,0,10,.08,20.06.12,30.09,0,1.83,0,3.66,0,6.12H221.81c0-6.6,0-13.6,0-20.6,0-5.08-.12-10.17-.28-15.25a7,7,0,0,0-.78-3.66c-.88-1.21-2.52-2.89-3.58-2.72a5.2,5.2,0,0,0-3.59,3.18,41.23,41.23,0,0,0-.42,8.84c0,8.76,0,17.53.27,26.28.08,3.15-1.12,4.26-4.2,4.2-6.67-.12-13.35,0-20.58,0V81.6H210.2c.14,2.22.3,4.69.53,8.19,4.85-6,10.23-9.56,17.31-9.83,7.9-.3,12.33,4.11,15.09,11.38,1.1-1.27,2-2.28,2.85-3.28,4.78-5.36,11-6.21,17.61-5.21,6.26,1,10.08,5.17,11.72,11a52.79,52.79,0,0,1,2.33,12.88C278,119,277.75,131.32,277.75,144.23Z"/><path class="cls-2" d="M395.78,146c1.49-3,2.94-5.78,4.16-8.59,1.13-2.61.62-4.57-1.91-6.53-7.18-5.56-11.23-12.79-11.51-22.12-.34-11.35,5.14-19.47,14-25.64C415,73,437.33,74.73,450.36,86.68c16.66,15.29,10.56,41.71-11.5,50.1-7.11,2.71-14.39,2.91-21.85,2.57a10.05,10.05,0,0,0-5.95,1.87A23,23,0,0,1,395.78,146Zm15.33-26.21c.52,1,.94,2.58,1.34,2.57,1.43,0,3.3-.1,4.22-1,4.25-4,8.33-3.91,12.58-.18a1.81,1.81,0,0,0,.69.47c1.3.27,2.6.48,3.9.71.18-1.31.93-2.89.45-3.9-2.63-5.55-1.43-9.65,4.08-12.49a2.08,2.08,0,0,0,.92-.86c.44-1,1.26-2.14,1-2.91a3.17,3.17,0,0,0-2.55-1.68c-6.87.85-10.92-2-12.18-8.71a2.1,2.1,0,0,0-.4-.75c-1.55-2.13-3.78-1.84-4.24.22-1.56,7-5.28,10-12.66,9.33-2.77-.26-3.76,2.81-1.41,4.27C413,108.74,415.39,113.23,411.11,119.83Z"/><path class="cls-1" d="M281.67,111.54c.41-3.21.67-6.44,1.23-9.62,3.21-18.3,16.28-23.86,32.48-22.39,12.48,1.13,20.35,9,22.87,21.69a52.25,52.25,0,0,1-2,28c-4,11.38-13.26,16.89-26.86,16.44-16.58-.55-24.53-8.43-27.28-28.58a42,42,0,0,1,0-5.5Zm21-1.08c0,6.41,3.34,10.79,8.29,10.84,4.28,0,7.78-4.41,7.82-9.93,0-5.86-3.24-9.52-8.47-9.48S302.72,104.79,302.71,110.46Z"/><path class="cls-1" d="M182.33,143.87l-20.18,1c-.59-1.71-1.07-3.12-1.48-4.34-4.28,1.4-8.29,3.28-12.51,4-13.6,2.27-21-5.87-18-19.29,2.07-9.07,9.4-14.66,20.43-15.46,2.38-.18,4.79,0,7.12,0,.59-6-1.63-8.68-6.8-7.67-4.38.86-8.54,2.82-13.26,4.45-3.58-5.37-4.42-12-5.13-18.69-.09-.8,1.24-2.12,2.21-2.6,10-5,20.54-6.69,31.44-4,7.76,1.93,12.37,7.62,14,15.08a106.09,106.09,0,0,1,2.05,18.84C182.58,124.54,182.33,134,182.33,143.87Zm-23.64-23.61c-5.78.77-8.19,2.84-7.34,6.26.61,2.48,2.32,3.4,4.81,2.91C159.86,128.7,160.44,126.72,158.69,120.26Z"/><path class="cls-1" d="M128.73,109.69h-7.37v34.9H95.78v-34.1c-5.24.7-5.38-2.13-5.28-5.41.14-4.91,0-9.83,0-14.76l4.7-.65A88.24,88.24,0,0,1,97,80.05c3.31-11.4,14.07-17.41,27.18-16,4.61.5,6.5,2.07,6.06,6.74-.35,3.62-.07,7.29-.07,10.8-9,2.11-9.53,2.7-8.82,9.49h7.4Z"/><path class="cls-1" d="M379.3,98.89c-2.73-.66-4.78-1.56-6.82-1.54-1.61,0-4.13.78-4.59,1.89a5.84,5.84,0,0,0,1.08,5.12c1.78,1.92,4.33,3.15,6.58,4.62,7.26,4.72,10.21,12.47,8.17,21.5-1.8,7.94-7.07,13.13-15.7,13.85-7,.58-14.14-.07-21.2-.26-2.1-.06-3.21-1-3.27-3.44-.12-4.77-.6-9.53-1-14.73,3.58.28,6.67.94,9.66.63,2-.21,4.87-1.38,5.5-2.88s-.73-4.21-2-5.8a61.14,61.14,0,0,0-7-6.81c-6-5.48-7.42-12.3-5.26-19.75,2.12-7.28,8.09-10.11,15.06-11.44a38.66,38.66,0,0,1,22.14,2.52c1,.39,2.25,2,2.09,2.87C381.86,89.75,380.54,94.18,379.3,98.89Z"/><path class="cls-1" d="M463.93,125.88c3.83.31,6.83.93,9.75.64,1.87-.18,4.49-1.31,5.15-2.76s-.42-4.05-1.58-5.47c-2.42-2.93-5.44-5.36-8.16-8.05-5.65-5.59-6.69-12.35-4.33-19.55,2.18-6.63,7.75-9.36,14.21-10.7,8.83-1.83,17.17-.33,25.64,3.56-1.41,5.11-2.79,10.07-4.25,15.32-2.58-.63-4.63-1.55-6.64-1.48-1.72.07-4.23.86-4.86,2.1s.29,3.76,1.38,5c1.54,1.74,3.83,2.86,5.85,4.16,7.58,4.86,10.71,12.34,8.83,21.16s-6.94,13.75-16.37,14.58c-6.85.6-13.82-.09-20.74-.29-2.18-.06-3.17-1.3-3.23-3.54C464.46,135.8,464.17,131.05,463.93,125.88Z"/></g></g></svg>